<svg width="367" height="357" viewBox="0 0 367 357" fill="none" xmlns="http://www.w3.org/2000/svg">
<rect width="367" height="357" fill="#4167F2"/>
<path d="M182.5 61V296" stroke="white" stroke-width="18"/>
<path d="M81 119.5L284.516 237" stroke="white" stroke-width="18"/>
<path d="M212 229.5L242 281.462" stroke="white" stroke-width="18"/>
<path d="M125 76.5L155 128.462" stroke="white" stroke-width="18"/>
<path d="M242 76.5L212 128.462" stroke="white" stroke-width="18"/>
<path d="M153 229.5L123 281.462" stroke="white" stroke-width="18"/>
<path d="M125 178.5H65" stroke="white" stroke-width="18"/>
<path d="M302 178.5H242" stroke="white" stroke-width="18"/>
<path d="M81 237L284.516 119.5" stroke="white" stroke-width="18"/>
<path d="M182.5 61V296" stroke="white" stroke-width="18"/>
<path d="M81 119.5L284.516 237" stroke="white" stroke-width="18"/>
<path d="M212 229.5L242 281.462" stroke="white" stroke-width="18"/>
<path d="M125 76.5L155 128.462" stroke="white" stroke-width="18"/>
<path d="M242 76.5L212 128.462" stroke="white" stroke-width="18"/>
<path d="M153 229.5L123 281.462" stroke="white" stroke-width="18"/>
<path d="M125 178.5H65" stroke="white" stroke-width="18"/>
<path d="M302 178.5H242" stroke="white" stroke-width="18"/>
<path d="M81 237L284.516 119.5" stroke="white" stroke-width="18"/>
<path d="M182.5 61V296" stroke="white" stroke-width="18"/>
<path d="M81 119.5L284.516 237" stroke="white" stroke-width="18"/>
<path d="M212 229.5L242 281.462" stroke="white" stroke-width="18"/>
<path d="M125 76.5L155 128.462" stroke="white" stroke-width="18"/>
<path d="M242 76.5L212 128.462" stroke="white" stroke-width="18"/>
<path d="M153 229.5L123 281.462" stroke="white" stroke-width="18"/>
<path d="M125 178.5H65" stroke="white" stroke-width="18"/>
<path d="M302 178.5H242" stroke="white" stroke-width="18"/>
<path d="M81 237L284.516 119.5" stroke="white" stroke-width="18"/>
<path d="M182.5 61V296" stroke="white" stroke-width="18"/>
<path d="M81 119.5L284.516 237" stroke="white" stroke-width="18"/>
<path d="M212 229.5L242 281.462" stroke="white" stroke-width="18"/>
<path d="M125 76.5L155 128.462" stroke="white" stroke-width="18"/>
<path d="M242 76.5L212 128.462" stroke="white" stroke-width="18"/>
<path d="M153 229.5L123 281.462" stroke="white" stroke-width="18"/>
<path d="M125 178.5H65" stroke="white" stroke-width="18"/>
<path d="M302 178.5H242" stroke="white" stroke-width="18"/>
<path d="M81 237L284.516 119.5" stroke="white" stroke-width="18"/>
<path d="M182.5 61V296" stroke="white" stroke-width="18"/>
<path d="M81 119.5L284.516 237" stroke="white" stroke-width="18"/>
<path d="M212 229.5L242 281.462" stroke="white" stroke-width="18"/>
<path d="M125 76.5L155 128.462" stroke="white" stroke-width="18"/>
<path d="M242 76.5L212 128.462" stroke="white" stroke-width="18"/>
<path d="M153 229.5L123 281.462" stroke="white" stroke-width="18"/>
<path d="M125 178.5H65" stroke="white" stroke-width="18"/>
<path d="M302 178.5H242" stroke="white" stroke-width="18"/>
<path d="M81 237L284.516 119.5" stroke="white" stroke-width="18"/>
<path d="M182.5 61V296" stroke="white" stroke-width="18"/>
<path d="M81 119.5L284.516 237" stroke="white" stroke-width="18"/>
<path d="M212 229.5L242 281.462" stroke="white" stroke-width="18"/>
<path d="M125 76.5L155 128.462" stroke="white" stroke-width="18"/>
<path d="M242 76.5L212 128.462" stroke="white" stroke-width="18"/>
<path d="M153 229.5L123 281.462" stroke="white" stroke-width="18"/>
<path d="M125 178.5H65" stroke="white" stroke-width="18"/>
<path d="M302 178.5H242" stroke="white" stroke-width="18"/>
<path d="M81 237L284.516 119.5" stroke="white" stroke-width="18"/>
<path d="M182.5 61V296" stroke="white" stroke-width="18"/>
<path d="M81 119.5L284.516 237" stroke="white" stroke-width="18"/>
<path d="M212 229.5L242 281.462" stroke="white" stroke-width="18"/>
<path d="M125 76.5L155 128.462" stroke="white" stroke-width="18"/>
<path d="M242 76.5L212 128.462" stroke="white" stroke-width="18"/>
<path d="M153 229.5L123 281.462" stroke="white" stroke-width="18"/>
<path d="M125 178.5H65" stroke="white" stroke-width="18"/>
<path d="M302 178.5H242" stroke="white" stroke-width="18"/>
<path d="M81 237L284.516 119.5" stroke="white" stroke-width="18"/>
<path d="M182.5 61V296" stroke="white" stroke-width="18"/>
<path d="M81 119.5L284.516 237" stroke="white" stroke-width="18"/>
<path d="M212 229.5L242 281.462" stroke="white" stroke-width="18"/>
<path d="M125 76.5L155 128.462" stroke="white" stroke-width="18"/>
<path d="M242 76.5L212 128.462" stroke="white" stroke-width="18"/>
<path d="M153 229.5L123 281.462" stroke="white" stroke-width="18"/>
<path d="M125 178.5H65" stroke="white" stroke-width="18"/>
<path d="M302 178.5H242" stroke="white" stroke-width="18"/>
<path d="M81 237L284.516 119.5" stroke="white" stroke-width="18"/>
<path d="M182.5 61V296" stroke="white" stroke-width="18"/>
<path d="M81 119.5L284.516 237" stroke="white" stroke-width="18"/>
<path d="M212 229.5L242 281.462" stroke="white" stroke-width="18"/>
<path d="M125 76.5L155 128.462" stroke="white" stroke-width="18"/>
<path d="M242 76.5L212 128.462" stroke="white" stroke-width="18"/>
<path d="M153 229.5L123 281.462" stroke="white" stroke-width="18"/>
<path d="M125 178.5H65" stroke="white" stroke-width="18"/>
<path d="M302 178.5H242" stroke="white" stroke-width="18"/>
<path d="M81 237L284.516 119.5" stroke="white" stroke-width="18"/>
<path d="M182.5 61V296" stroke="white" stroke-width="18"/>
<path d="M81 119.5L284.516 237" stroke="white" stroke-width="18"/>
<path d="M212 229.5L242 281.462" stroke="white" stroke-width="18"/>
<path d="M125 76.5L155 128.462" stroke="white" stroke-width="18"/>
<path d="M242 76.5L212 128.462" stroke="white" stroke-width="18"/>
<path d="M153 229.5L123 281.462" stroke="white" stroke-width="18"/>
<path d="M125 178.5H65" stroke="white" stroke-width="18"/>
<path d="M302 178.5H242" stroke="white" stroke-width="18"/>
<path d="M81 237L284.516 119.5" stroke="white" stroke-width="18"/>
</svg>
